<?xml version="1.0" encoding="utf-8"?>
<!-- Generator: Adobe Illustrator 18.1.1, SVG Export Plug-In . SVG Version: 6.00 Build 0)  -->
<svg version="1.1" id="Layer_1" xmlns="http://www.w3.org/2000/svg" xmlns:xlink="http://www.w3.org/1999/xlink" x="0px" y="0px"
	 viewBox="0 0 94.2 153.2" enable-background="new 0 0 94.2 153.2" xml:space="preserve">
<g id="Book_1_">
	<path fill="#2E3191" stroke="#231F20" stroke-width="0.25" stroke-miterlimit="10" d="M-0.1,4.6h85.8c0,0,8.5-1.5,8.5,7.5
		s0,123.2,0,123.2H2.4c0,0-2.8-0.2-2.5,4.8S-0.1,4.6-0.1,4.6z"/>
	<g>
		<g opacity="0.97">
			<rect x="0" y="41.3" fill="#33172D" width="94.2" height="43.5"/>
			<rect x="0" y="37.3" fill="#33172D" width="94.2" height="43.5"/>
		</g>
		<g>
			<g opacity="0.97">
				<rect x="0" y="41.3" fill="#33172D" width="94.2" height="43.5"/>
			</g>
			<g>
				<rect x="0" y="37.3" fill="#2880B9" width="94.2" height="43.5"/>
			</g>
		</g>
	</g>
	<path opacity="0.85" fill="#F2EDC1" stroke="#231F20" stroke-width="0.75" stroke-miterlimit="10" d="M94.2,134.2H2.6
		c0,0-2.8,1-2.8,4.9s1.5,4.2,3.4,4.4s91,0,91,0v-1.3h-1.5v-0.9h-1.2v-0.8v-3.4v-0.4h0.9v-1.1l1.7,0V134.2L94.2,134.2z"/>
	<rect x="69.7" y="-0.1" fill="#3B97D2" width="8" height="145"/>
	<rect x="17" y="137.5" fill="#3B97D2" width="7" height="15.8"/>
</g>
</svg>
