<?xml version="1.0" encoding="utf-8"?>
<!-- Generator: Adobe Illustrator 18.1.1, SVG Export Plug-In . SVG Version: 6.00 Build 0)  -->
<svg version="1.1" id="Layer_1" xmlns="http://www.w3.org/2000/svg" xmlns:xlink="http://www.w3.org/1999/xlink" x="0px" y="0px"
	 viewBox="0 0 759 262.1" enable-background="new 0 0 759 262.1" xml:space="preserve">
<g id="Book">
	<path fill="#552437" stroke="#000000" stroke-width="0.25" stroke-miterlimit="10" d="M242.9,8.1h146.4c0,0,14.5-2.6,14.5,12.8
		s0,210.5,0,210.5H247.1c0,0-4.7-0.4-4.3,8.1C243.3,248,242.9,8.1,242.9,8.1z"/>
	<g>
		<g opacity="0.97">
			<rect x="243" y="68" fill="#33182D" width="160.8" height="74.3"/>
			<rect x="243" y="64" fill="#33182D" width="160.8" height="74.3"/>
		</g>
		<g>
			<g opacity="0.97">
				<rect x="243" y="68" fill="#33182D" width="160.8" height="74.3"/>
			</g>
			<g>
				<rect x="243" y="64" fill="#B62D26" width="160.8" height="74.3"/>
			</g>
		</g>
	</g>
	<path opacity="0.85" fill="#F3EEC2" stroke="#000000" stroke-width="0.75" stroke-miterlimit="10" d="M403.9,229.4H247.4
		c0,0-4.7,1.7-4.7,8.3c0,6.6,2.6,7.3,5.8,7.5c3.2,0.2,155.4,0,155.4,0v-2.3h-2.5v-1.5h-2v-1.4v-5.7v-0.7h1.6v-2l3,0.1V229.4
		L403.9,229.4z"/>
	<rect x="362" fill="#DE6726" width="13.7" height="247.6"/>
	<rect x="272" y="235.1" fill="#DE6726" width="12" height="27"/>
</g>
<text transform="matrix(1 0 0 1 -6.866455e-005 163.722)" font-family="'Simplifica'" font-size="131.4052">Write</text>
<text transform="matrix(1 0 0 1 456.0273 163.7203)" font-family="'Simplifica'" font-size="131.4052">Together</text>
</svg>
