<?xml version="1.0" encoding="utf-8"?>
<!-- Generator: Adobe Illustrator 18.1.1, SVG Export Plug-In . SVG Version: 6.00 Build 0)  -->
<svg version="1.1" xmlns="http://www.w3.org/2000/svg" xmlns:xlink="http://www.w3.org/1999/xlink" x="0px" y="0px"
	 viewBox="0 0 283.5 80.1" enable-background="new 0 0 283.5 80.1" xml:space="preserve">
<g id="Layer_2" display="none">
	<rect x="-8" display="inline" stroke="#000000" stroke-miterlimit="10" width="306" height="80.1"/>
</g>
<g id="Layer_1">
	<g id="Book">
		<path fill="#552437" stroke="#000000" stroke-width="0.25" stroke-miterlimit="10" d="M90.2,2.5h44.7c0,0,4.4-0.8,4.4,3.9
			s0,64.3,0,64.3H91.5c0,0-1.4-0.1-1.3,2.5S90.2,2.5,90.2,2.5z"/>
		<g>
			<g opacity="0.97">
				<rect x="90.2" y="23.6" fill="#33182D" width="49.1" height="22.7"/>
				<rect x="90.2" y="19.6" fill="#33182D" width="49.1" height="22.7"/>
			</g>
			<g>
				<g opacity="0.97">
					<rect x="90.2" y="23.6" fill="#33182D" width="49.1" height="22.7"/>
				</g>
				<g>
					<rect x="90.2" y="19.6" fill="#B62D26" width="49.1" height="22.7"/>
				</g>
			</g>
		</g>
		<path opacity="0.85" fill="#F3EEC2" stroke="#000000" stroke-width="0.75" stroke-miterlimit="10" d="M139.4,70.1H91.6
			c0,0-1.4,0.5-1.4,2.5s0.8,2.2,1.8,2.3c1,0.1,47.5,0,47.5,0v-0.7h-0.8v-0.5H138v-0.4v-1.7v-0.2h0.5v-0.6l0.9,0V70.1L139.4,70.1z"/>
		<rect x="126.6" y="0" fill="#DE6726" width="4.2" height="75.6"/>
		<rect x="99.1" y="71.8" fill="#DE6726" width="3.7" height="8.3"/>
	</g>
	<text transform="matrix(1 0 0 1 1.678467e-04 48.0164)" fill="#FFFFFF" font-family="'SourceSansPro-ExtraLight'" font-size="36">Write</text>
	<text transform="matrix(1 0 0 1 154.9812 50.0164)" fill="#FFFFFF" font-family="'SourceSansPro-ExtraLight'" font-size="36">Together</text>
</g>
</svg>
